M48
; DRILL file {KiCad (5.1.9-0-10_14)} date Thursday, January 06, 2022 at 10:40:08 PM
; FORMAT={-:-/ absolute / inch / decimal}
; #@! TF.CreationDate,2022-01-06T22:40:08+01:00
; #@! TF.GenerationSoftware,Kicad,Pcbnew,(5.1.9-0-10_14)
; #@! TF.FileFunction,Plated,1,2,PTH
FMAT,2
INCH
T1C0.0354
T2C0.0394
%
G90
G05
T1
X0.1469Y-0.1969
X0.1469Y-0.5906
X0.1469Y-0.9843
X0.1469Y-1.378
X0.1469Y-1.7717
X0.1469Y-2.1654
X0.1469Y-2.5591
X0.1469Y-2.9528
X0.2469Y-0.1969
X0.2469Y-0.5906
X0.2469Y-0.9843
X0.2469Y-1.378
X0.2469Y-1.7717
X0.2469Y-2.1654
X0.2469Y-2.5591
X0.2469Y-2.9528
X0.5406Y-0.1969
X0.5406Y-0.5906
X0.5406Y-0.9843
X0.5406Y-1.378
X0.5406Y-1.7717
X0.5406Y-2.1654
X0.5406Y-2.5591
X0.5406Y-2.9528
X0.6406Y-0.1969
X0.6406Y-0.5906
X0.6406Y-0.9843
X0.6406Y-1.378
X0.6406Y-1.7717
X0.6406Y-2.1654
X0.6406Y-2.5591
X0.6406Y-2.9528
X0.9343Y-0.1969
X0.9343Y-0.5906
X0.9343Y-0.9843
X0.9343Y-1.378
X0.9343Y-1.7717
X0.9343Y-2.1654
X0.9343Y-2.5591
X0.9343Y-2.9528
X1.0343Y-0.1969
X1.0343Y-0.5906
X1.0343Y-0.9843
X1.0343Y-1.378
X1.0343Y-1.7717
X1.0343Y-2.1654
X1.0343Y-2.5591
X1.0343Y-2.9528
X1.328Y-0.1969
X1.328Y-0.5906
X1.328Y-0.9843
X1.328Y-1.378
X1.328Y-1.7717
X1.328Y-2.1654
X1.328Y-2.5591
X1.328Y-2.9528
X1.428Y-0.1969
X1.428Y-0.5906
X1.428Y-0.9843
X1.428Y-1.378
X1.428Y-1.7717
X1.428Y-2.1654
X1.428Y-2.5591
X1.428Y-2.9528
X1.7217Y-0.1969
X1.7217Y-0.5906
X1.7217Y-0.9843
X1.7217Y-1.378
X1.7217Y-1.7717
X1.7217Y-2.1654
X1.7217Y-2.5591
X1.7217Y-2.9528
X1.8217Y-0.1969
X1.8217Y-0.5906
X1.8217Y-0.9843
X1.8217Y-1.378
X1.8217Y-1.7717
X1.8217Y-2.1654
X1.8217Y-2.5591
X1.8217Y-2.9528
X2.1154Y-0.1969
X2.1154Y-0.5906
X2.1154Y-0.9843
X2.1154Y-1.378
X2.1154Y-1.7717
X2.1154Y-2.1654
X2.1154Y-2.5591
X2.1154Y-2.9528
X2.2154Y-0.1969
X2.2154Y-0.5906
X2.2154Y-0.9843
X2.2154Y-1.378
X2.2154Y-1.7717
X2.2154Y-2.1654
X2.2154Y-2.5591
X2.2154Y-2.9528
X2.5091Y-0.1969
X2.5091Y-0.5906
X2.5091Y-0.9843
X2.5091Y-1.378
X2.5091Y-1.7717
X2.5091Y-2.1654
X2.5091Y-2.5591
X2.5091Y-2.9528
X2.6091Y-0.1969
X2.6091Y-0.5906
X2.6091Y-0.9843
X2.6091Y-1.378
X2.6091Y-1.7717
X2.6091Y-2.1654
X2.6091Y-2.5591
X2.6091Y-2.9528
X2.9028Y-0.1969
X2.9028Y-0.5906
X2.9028Y-0.9843
X2.9028Y-1.378
X2.9028Y-1.7717
X2.9028Y-2.1654
X2.9028Y-2.5591
X2.9028Y-2.9528
X3.0028Y-0.1969
X3.0028Y-0.5906
X3.0028Y-0.9843
X3.0028Y-1.378
X3.0028Y-1.7717
X3.0028Y-2.1654
X3.0028Y-2.5591
X3.0028Y-2.9528
T2
X1.5748Y-0.3331
X1.5748Y-0.4331
X1.5748Y-2.7346
X1.5748Y-2.8346
T0
M30
