%TF.GenerationSoftware,KiCad,Pcbnew,(5.1.9-0-10_14)*%
%TF.CreationDate,2022-01-06T22:40:05+01:00*%
%TF.ProjectId,8x8_supercomputer,3878385f-7375-4706-9572-636f6d707574,rev?*%
%TF.SameCoordinates,Original*%
%TF.FileFunction,Soldermask,Bot*%
%TF.FilePolarity,Negative*%
%FSLAX46Y46*%
G04 Gerber Fmt 4.6, Leading zero omitted, Abs format (unit mm)*
G04 Created by KiCad (PCBNEW (5.1.9-0-10_14)) date 2022-01-06 22:40:05*
%MOMM*%
%LPD*%
G01*
G04 APERTURE LIST*
%ADD10C,1.800000*%
%ADD11R,1.800000X1.800000*%
%ADD12C,3.200000*%
%ADD13O,1.700000X1.700000*%
%ADD14R,1.700000X1.700000*%
G04 APERTURE END LIST*
%TO.C,R1*%
G36*
G01*
X75400000Y-78450001D02*
X75400000Y-77549999D01*
G75*
G02*
X75649999Y-77300000I249999J0D01*
G01*
X76350001Y-77300000D01*
G75*
G02*
X76600000Y-77549999I0J-249999D01*
G01*
X76600000Y-78450001D01*
G75*
G02*
X76350001Y-78700000I-249999J0D01*
G01*
X75649999Y-78700000D01*
G75*
G02*
X75400000Y-78450001I0J249999D01*
G01*
G37*
G36*
G01*
X73400000Y-78450001D02*
X73400000Y-77549999D01*
G75*
G02*
X73649999Y-77300000I249999J0D01*
G01*
X74350001Y-77300000D01*
G75*
G02*
X74600000Y-77549999I0J-249999D01*
G01*
X74600000Y-78450001D01*
G75*
G02*
X74350001Y-78700000I-249999J0D01*
G01*
X73649999Y-78700000D01*
G75*
G02*
X73400000Y-78450001I0J249999D01*
G01*
G37*
%TD*%
%TO.C,R1*%
G36*
G01*
X65400000Y-78450001D02*
X65400000Y-77549999D01*
G75*
G02*
X65649999Y-77300000I249999J0D01*
G01*
X66350001Y-77300000D01*
G75*
G02*
X66600000Y-77549999I0J-249999D01*
G01*
X66600000Y-78450001D01*
G75*
G02*
X66350001Y-78700000I-249999J0D01*
G01*
X65649999Y-78700000D01*
G75*
G02*
X65400000Y-78450001I0J249999D01*
G01*
G37*
G36*
G01*
X63400000Y-78450001D02*
X63400000Y-77549999D01*
G75*
G02*
X63649999Y-77300000I249999J0D01*
G01*
X64350001Y-77300000D01*
G75*
G02*
X64600000Y-77549999I0J-249999D01*
G01*
X64600000Y-78450001D01*
G75*
G02*
X64350001Y-78700000I-249999J0D01*
G01*
X63649999Y-78700000D01*
G75*
G02*
X63400000Y-78450001I0J249999D01*
G01*
G37*
%TD*%
%TO.C,R1*%
G36*
G01*
X55400000Y-78450001D02*
X55400000Y-77549999D01*
G75*
G02*
X55649999Y-77300000I249999J0D01*
G01*
X56350001Y-77300000D01*
G75*
G02*
X56600000Y-77549999I0J-249999D01*
G01*
X56600000Y-78450001D01*
G75*
G02*
X56350001Y-78700000I-249999J0D01*
G01*
X55649999Y-78700000D01*
G75*
G02*
X55400000Y-78450001I0J249999D01*
G01*
G37*
G36*
G01*
X53400000Y-78450001D02*
X53400000Y-77549999D01*
G75*
G02*
X53649999Y-77300000I249999J0D01*
G01*
X54350001Y-77300000D01*
G75*
G02*
X54600000Y-77549999I0J-249999D01*
G01*
X54600000Y-78450001D01*
G75*
G02*
X54350001Y-78700000I-249999J0D01*
G01*
X53649999Y-78700000D01*
G75*
G02*
X53400000Y-78450001I0J249999D01*
G01*
G37*
%TD*%
%TO.C,R1*%
G36*
G01*
X45400000Y-78450001D02*
X45400000Y-77549999D01*
G75*
G02*
X45649999Y-77300000I249999J0D01*
G01*
X46350001Y-77300000D01*
G75*
G02*
X46600000Y-77549999I0J-249999D01*
G01*
X46600000Y-78450001D01*
G75*
G02*
X46350001Y-78700000I-249999J0D01*
G01*
X45649999Y-78700000D01*
G75*
G02*
X45400000Y-78450001I0J249999D01*
G01*
G37*
G36*
G01*
X43400000Y-78450001D02*
X43400000Y-77549999D01*
G75*
G02*
X43649999Y-77300000I249999J0D01*
G01*
X44350001Y-77300000D01*
G75*
G02*
X44600000Y-77549999I0J-249999D01*
G01*
X44600000Y-78450001D01*
G75*
G02*
X44350001Y-78700000I-249999J0D01*
G01*
X43649999Y-78700000D01*
G75*
G02*
X43400000Y-78450001I0J249999D01*
G01*
G37*
%TD*%
%TO.C,R1*%
G36*
G01*
X35400000Y-78450001D02*
X35400000Y-77549999D01*
G75*
G02*
X35649999Y-77300000I249999J0D01*
G01*
X36350001Y-77300000D01*
G75*
G02*
X36600000Y-77549999I0J-249999D01*
G01*
X36600000Y-78450001D01*
G75*
G02*
X36350001Y-78700000I-249999J0D01*
G01*
X35649999Y-78700000D01*
G75*
G02*
X35400000Y-78450001I0J249999D01*
G01*
G37*
G36*
G01*
X33400000Y-78450001D02*
X33400000Y-77549999D01*
G75*
G02*
X33649999Y-77300000I249999J0D01*
G01*
X34350001Y-77300000D01*
G75*
G02*
X34600000Y-77549999I0J-249999D01*
G01*
X34600000Y-78450001D01*
G75*
G02*
X34350001Y-78700000I-249999J0D01*
G01*
X33649999Y-78700000D01*
G75*
G02*
X33400000Y-78450001I0J249999D01*
G01*
G37*
%TD*%
%TO.C,R1*%
G36*
G01*
X25400000Y-78450001D02*
X25400000Y-77549999D01*
G75*
G02*
X25649999Y-77300000I249999J0D01*
G01*
X26350001Y-77300000D01*
G75*
G02*
X26600000Y-77549999I0J-249999D01*
G01*
X26600000Y-78450001D01*
G75*
G02*
X26350001Y-78700000I-249999J0D01*
G01*
X25649999Y-78700000D01*
G75*
G02*
X25400000Y-78450001I0J249999D01*
G01*
G37*
G36*
G01*
X23400000Y-78450001D02*
X23400000Y-77549999D01*
G75*
G02*
X23649999Y-77300000I249999J0D01*
G01*
X24350001Y-77300000D01*
G75*
G02*
X24600000Y-77549999I0J-249999D01*
G01*
X24600000Y-78450001D01*
G75*
G02*
X24350001Y-78700000I-249999J0D01*
G01*
X23649999Y-78700000D01*
G75*
G02*
X23400000Y-78450001I0J249999D01*
G01*
G37*
%TD*%
%TO.C,R1*%
G36*
G01*
X15400000Y-78450001D02*
X15400000Y-77549999D01*
G75*
G02*
X15649999Y-77300000I249999J0D01*
G01*
X16350001Y-77300000D01*
G75*
G02*
X16600000Y-77549999I0J-249999D01*
G01*
X16600000Y-78450001D01*
G75*
G02*
X16350001Y-78700000I-249999J0D01*
G01*
X15649999Y-78700000D01*
G75*
G02*
X15400000Y-78450001I0J249999D01*
G01*
G37*
G36*
G01*
X13400000Y-78450001D02*
X13400000Y-77549999D01*
G75*
G02*
X13649999Y-77300000I249999J0D01*
G01*
X14350001Y-77300000D01*
G75*
G02*
X14600000Y-77549999I0J-249999D01*
G01*
X14600000Y-78450001D01*
G75*
G02*
X14350001Y-78700000I-249999J0D01*
G01*
X13649999Y-78700000D01*
G75*
G02*
X13400000Y-78450001I0J249999D01*
G01*
G37*
%TD*%
%TO.C,R1*%
G36*
G01*
X5400000Y-78450001D02*
X5400000Y-77549999D01*
G75*
G02*
X5649999Y-77300000I249999J0D01*
G01*
X6350001Y-77300000D01*
G75*
G02*
X6600000Y-77549999I0J-249999D01*
G01*
X6600000Y-78450001D01*
G75*
G02*
X6350001Y-78700000I-249999J0D01*
G01*
X5649999Y-78700000D01*
G75*
G02*
X5400000Y-78450001I0J249999D01*
G01*
G37*
G36*
G01*
X3400000Y-78450001D02*
X3400000Y-77549999D01*
G75*
G02*
X3649999Y-77300000I249999J0D01*
G01*
X4350001Y-77300000D01*
G75*
G02*
X4600000Y-77549999I0J-249999D01*
G01*
X4600000Y-78450001D01*
G75*
G02*
X4350001Y-78700000I-249999J0D01*
G01*
X3649999Y-78700000D01*
G75*
G02*
X3400000Y-78450001I0J249999D01*
G01*
G37*
%TD*%
%TO.C,R1*%
G36*
G01*
X75400000Y-68450001D02*
X75400000Y-67549999D01*
G75*
G02*
X75649999Y-67300000I249999J0D01*
G01*
X76350001Y-67300000D01*
G75*
G02*
X76600000Y-67549999I0J-249999D01*
G01*
X76600000Y-68450001D01*
G75*
G02*
X76350001Y-68700000I-249999J0D01*
G01*
X75649999Y-68700000D01*
G75*
G02*
X75400000Y-68450001I0J249999D01*
G01*
G37*
G36*
G01*
X73400000Y-68450001D02*
X73400000Y-67549999D01*
G75*
G02*
X73649999Y-67300000I249999J0D01*
G01*
X74350001Y-67300000D01*
G75*
G02*
X74600000Y-67549999I0J-249999D01*
G01*
X74600000Y-68450001D01*
G75*
G02*
X74350001Y-68700000I-249999J0D01*
G01*
X73649999Y-68700000D01*
G75*
G02*
X73400000Y-68450001I0J249999D01*
G01*
G37*
%TD*%
%TO.C,R1*%
G36*
G01*
X65400000Y-68450001D02*
X65400000Y-67549999D01*
G75*
G02*
X65649999Y-67300000I249999J0D01*
G01*
X66350001Y-67300000D01*
G75*
G02*
X66600000Y-67549999I0J-249999D01*
G01*
X66600000Y-68450001D01*
G75*
G02*
X66350001Y-68700000I-249999J0D01*
G01*
X65649999Y-68700000D01*
G75*
G02*
X65400000Y-68450001I0J249999D01*
G01*
G37*
G36*
G01*
X63400000Y-68450001D02*
X63400000Y-67549999D01*
G75*
G02*
X63649999Y-67300000I249999J0D01*
G01*
X64350001Y-67300000D01*
G75*
G02*
X64600000Y-67549999I0J-249999D01*
G01*
X64600000Y-68450001D01*
G75*
G02*
X64350001Y-68700000I-249999J0D01*
G01*
X63649999Y-68700000D01*
G75*
G02*
X63400000Y-68450001I0J249999D01*
G01*
G37*
%TD*%
%TO.C,R1*%
G36*
G01*
X55400000Y-68450001D02*
X55400000Y-67549999D01*
G75*
G02*
X55649999Y-67300000I249999J0D01*
G01*
X56350001Y-67300000D01*
G75*
G02*
X56600000Y-67549999I0J-249999D01*
G01*
X56600000Y-68450001D01*
G75*
G02*
X56350001Y-68700000I-249999J0D01*
G01*
X55649999Y-68700000D01*
G75*
G02*
X55400000Y-68450001I0J249999D01*
G01*
G37*
G36*
G01*
X53400000Y-68450001D02*
X53400000Y-67549999D01*
G75*
G02*
X53649999Y-67300000I249999J0D01*
G01*
X54350001Y-67300000D01*
G75*
G02*
X54600000Y-67549999I0J-249999D01*
G01*
X54600000Y-68450001D01*
G75*
G02*
X54350001Y-68700000I-249999J0D01*
G01*
X53649999Y-68700000D01*
G75*
G02*
X53400000Y-68450001I0J249999D01*
G01*
G37*
%TD*%
%TO.C,R1*%
G36*
G01*
X45400000Y-68450001D02*
X45400000Y-67549999D01*
G75*
G02*
X45649999Y-67300000I249999J0D01*
G01*
X46350001Y-67300000D01*
G75*
G02*
X46600000Y-67549999I0J-249999D01*
G01*
X46600000Y-68450001D01*
G75*
G02*
X46350001Y-68700000I-249999J0D01*
G01*
X45649999Y-68700000D01*
G75*
G02*
X45400000Y-68450001I0J249999D01*
G01*
G37*
G36*
G01*
X43400000Y-68450001D02*
X43400000Y-67549999D01*
G75*
G02*
X43649999Y-67300000I249999J0D01*
G01*
X44350001Y-67300000D01*
G75*
G02*
X44600000Y-67549999I0J-249999D01*
G01*
X44600000Y-68450001D01*
G75*
G02*
X44350001Y-68700000I-249999J0D01*
G01*
X43649999Y-68700000D01*
G75*
G02*
X43400000Y-68450001I0J249999D01*
G01*
G37*
%TD*%
%TO.C,R1*%
G36*
G01*
X35400000Y-68450001D02*
X35400000Y-67549999D01*
G75*
G02*
X35649999Y-67300000I249999J0D01*
G01*
X36350001Y-67300000D01*
G75*
G02*
X36600000Y-67549999I0J-249999D01*
G01*
X36600000Y-68450001D01*
G75*
G02*
X36350001Y-68700000I-249999J0D01*
G01*
X35649999Y-68700000D01*
G75*
G02*
X35400000Y-68450001I0J249999D01*
G01*
G37*
G36*
G01*
X33400000Y-68450001D02*
X33400000Y-67549999D01*
G75*
G02*
X33649999Y-67300000I249999J0D01*
G01*
X34350001Y-67300000D01*
G75*
G02*
X34600000Y-67549999I0J-249999D01*
G01*
X34600000Y-68450001D01*
G75*
G02*
X34350001Y-68700000I-249999J0D01*
G01*
X33649999Y-68700000D01*
G75*
G02*
X33400000Y-68450001I0J249999D01*
G01*
G37*
%TD*%
%TO.C,R1*%
G36*
G01*
X25400000Y-68450001D02*
X25400000Y-67549999D01*
G75*
G02*
X25649999Y-67300000I249999J0D01*
G01*
X26350001Y-67300000D01*
G75*
G02*
X26600000Y-67549999I0J-249999D01*
G01*
X26600000Y-68450001D01*
G75*
G02*
X26350001Y-68700000I-249999J0D01*
G01*
X25649999Y-68700000D01*
G75*
G02*
X25400000Y-68450001I0J249999D01*
G01*
G37*
G36*
G01*
X23400000Y-68450001D02*
X23400000Y-67549999D01*
G75*
G02*
X23649999Y-67300000I249999J0D01*
G01*
X24350001Y-67300000D01*
G75*
G02*
X24600000Y-67549999I0J-249999D01*
G01*
X24600000Y-68450001D01*
G75*
G02*
X24350001Y-68700000I-249999J0D01*
G01*
X23649999Y-68700000D01*
G75*
G02*
X23400000Y-68450001I0J249999D01*
G01*
G37*
%TD*%
%TO.C,R1*%
G36*
G01*
X15400000Y-68450001D02*
X15400000Y-67549999D01*
G75*
G02*
X15649999Y-67300000I249999J0D01*
G01*
X16350001Y-67300000D01*
G75*
G02*
X16600000Y-67549999I0J-249999D01*
G01*
X16600000Y-68450001D01*
G75*
G02*
X16350001Y-68700000I-249999J0D01*
G01*
X15649999Y-68700000D01*
G75*
G02*
X15400000Y-68450001I0J249999D01*
G01*
G37*
G36*
G01*
X13400000Y-68450001D02*
X13400000Y-67549999D01*
G75*
G02*
X13649999Y-67300000I249999J0D01*
G01*
X14350001Y-67300000D01*
G75*
G02*
X14600000Y-67549999I0J-249999D01*
G01*
X14600000Y-68450001D01*
G75*
G02*
X14350001Y-68700000I-249999J0D01*
G01*
X13649999Y-68700000D01*
G75*
G02*
X13400000Y-68450001I0J249999D01*
G01*
G37*
%TD*%
%TO.C,R1*%
G36*
G01*
X5400000Y-68450001D02*
X5400000Y-67549999D01*
G75*
G02*
X5649999Y-67300000I249999J0D01*
G01*
X6350001Y-67300000D01*
G75*
G02*
X6600000Y-67549999I0J-249999D01*
G01*
X6600000Y-68450001D01*
G75*
G02*
X6350001Y-68700000I-249999J0D01*
G01*
X5649999Y-68700000D01*
G75*
G02*
X5400000Y-68450001I0J249999D01*
G01*
G37*
G36*
G01*
X3400000Y-68450001D02*
X3400000Y-67549999D01*
G75*
G02*
X3649999Y-67300000I249999J0D01*
G01*
X4350001Y-67300000D01*
G75*
G02*
X4600000Y-67549999I0J-249999D01*
G01*
X4600000Y-68450001D01*
G75*
G02*
X4350001Y-68700000I-249999J0D01*
G01*
X3649999Y-68700000D01*
G75*
G02*
X3400000Y-68450001I0J249999D01*
G01*
G37*
%TD*%
%TO.C,R1*%
G36*
G01*
X75400000Y-58450001D02*
X75400000Y-57549999D01*
G75*
G02*
X75649999Y-57300000I249999J0D01*
G01*
X76350001Y-57300000D01*
G75*
G02*
X76600000Y-57549999I0J-249999D01*
G01*
X76600000Y-58450001D01*
G75*
G02*
X76350001Y-58700000I-249999J0D01*
G01*
X75649999Y-58700000D01*
G75*
G02*
X75400000Y-58450001I0J249999D01*
G01*
G37*
G36*
G01*
X73400000Y-58450001D02*
X73400000Y-57549999D01*
G75*
G02*
X73649999Y-57300000I249999J0D01*
G01*
X74350001Y-57300000D01*
G75*
G02*
X74600000Y-57549999I0J-249999D01*
G01*
X74600000Y-58450001D01*
G75*
G02*
X74350001Y-58700000I-249999J0D01*
G01*
X73649999Y-58700000D01*
G75*
G02*
X73400000Y-58450001I0J249999D01*
G01*
G37*
%TD*%
%TO.C,R1*%
G36*
G01*
X65400000Y-58450001D02*
X65400000Y-57549999D01*
G75*
G02*
X65649999Y-57300000I249999J0D01*
G01*
X66350001Y-57300000D01*
G75*
G02*
X66600000Y-57549999I0J-249999D01*
G01*
X66600000Y-58450001D01*
G75*
G02*
X66350001Y-58700000I-249999J0D01*
G01*
X65649999Y-58700000D01*
G75*
G02*
X65400000Y-58450001I0J249999D01*
G01*
G37*
G36*
G01*
X63400000Y-58450001D02*
X63400000Y-57549999D01*
G75*
G02*
X63649999Y-57300000I249999J0D01*
G01*
X64350001Y-57300000D01*
G75*
G02*
X64600000Y-57549999I0J-249999D01*
G01*
X64600000Y-58450001D01*
G75*
G02*
X64350001Y-58700000I-249999J0D01*
G01*
X63649999Y-58700000D01*
G75*
G02*
X63400000Y-58450001I0J249999D01*
G01*
G37*
%TD*%
%TO.C,R1*%
G36*
G01*
X55400000Y-58450001D02*
X55400000Y-57549999D01*
G75*
G02*
X55649999Y-57300000I249999J0D01*
G01*
X56350001Y-57300000D01*
G75*
G02*
X56600000Y-57549999I0J-249999D01*
G01*
X56600000Y-58450001D01*
G75*
G02*
X56350001Y-58700000I-249999J0D01*
G01*
X55649999Y-58700000D01*
G75*
G02*
X55400000Y-58450001I0J249999D01*
G01*
G37*
G36*
G01*
X53400000Y-58450001D02*
X53400000Y-57549999D01*
G75*
G02*
X53649999Y-57300000I249999J0D01*
G01*
X54350001Y-57300000D01*
G75*
G02*
X54600000Y-57549999I0J-249999D01*
G01*
X54600000Y-58450001D01*
G75*
G02*
X54350001Y-58700000I-249999J0D01*
G01*
X53649999Y-58700000D01*
G75*
G02*
X53400000Y-58450001I0J249999D01*
G01*
G37*
%TD*%
%TO.C,R1*%
G36*
G01*
X45400000Y-58450001D02*
X45400000Y-57549999D01*
G75*
G02*
X45649999Y-57300000I249999J0D01*
G01*
X46350001Y-57300000D01*
G75*
G02*
X46600000Y-57549999I0J-249999D01*
G01*
X46600000Y-58450001D01*
G75*
G02*
X46350001Y-58700000I-249999J0D01*
G01*
X45649999Y-58700000D01*
G75*
G02*
X45400000Y-58450001I0J249999D01*
G01*
G37*
G36*
G01*
X43400000Y-58450001D02*
X43400000Y-57549999D01*
G75*
G02*
X43649999Y-57300000I249999J0D01*
G01*
X44350001Y-57300000D01*
G75*
G02*
X44600000Y-57549999I0J-249999D01*
G01*
X44600000Y-58450001D01*
G75*
G02*
X44350001Y-58700000I-249999J0D01*
G01*
X43649999Y-58700000D01*
G75*
G02*
X43400000Y-58450001I0J249999D01*
G01*
G37*
%TD*%
%TO.C,R1*%
G36*
G01*
X35400000Y-58450001D02*
X35400000Y-57549999D01*
G75*
G02*
X35649999Y-57300000I249999J0D01*
G01*
X36350001Y-57300000D01*
G75*
G02*
X36600000Y-57549999I0J-249999D01*
G01*
X36600000Y-58450001D01*
G75*
G02*
X36350001Y-58700000I-249999J0D01*
G01*
X35649999Y-58700000D01*
G75*
G02*
X35400000Y-58450001I0J249999D01*
G01*
G37*
G36*
G01*
X33400000Y-58450001D02*
X33400000Y-57549999D01*
G75*
G02*
X33649999Y-57300000I249999J0D01*
G01*
X34350001Y-57300000D01*
G75*
G02*
X34600000Y-57549999I0J-249999D01*
G01*
X34600000Y-58450001D01*
G75*
G02*
X34350001Y-58700000I-249999J0D01*
G01*
X33649999Y-58700000D01*
G75*
G02*
X33400000Y-58450001I0J249999D01*
G01*
G37*
%TD*%
%TO.C,R1*%
G36*
G01*
X25400000Y-58450001D02*
X25400000Y-57549999D01*
G75*
G02*
X25649999Y-57300000I249999J0D01*
G01*
X26350001Y-57300000D01*
G75*
G02*
X26600000Y-57549999I0J-249999D01*
G01*
X26600000Y-58450001D01*
G75*
G02*
X26350001Y-58700000I-249999J0D01*
G01*
X25649999Y-58700000D01*
G75*
G02*
X25400000Y-58450001I0J249999D01*
G01*
G37*
G36*
G01*
X23400000Y-58450001D02*
X23400000Y-57549999D01*
G75*
G02*
X23649999Y-57300000I249999J0D01*
G01*
X24350001Y-57300000D01*
G75*
G02*
X24600000Y-57549999I0J-249999D01*
G01*
X24600000Y-58450001D01*
G75*
G02*
X24350001Y-58700000I-249999J0D01*
G01*
X23649999Y-58700000D01*
G75*
G02*
X23400000Y-58450001I0J249999D01*
G01*
G37*
%TD*%
%TO.C,R1*%
G36*
G01*
X15400000Y-58450001D02*
X15400000Y-57549999D01*
G75*
G02*
X15649999Y-57300000I249999J0D01*
G01*
X16350001Y-57300000D01*
G75*
G02*
X16600000Y-57549999I0J-249999D01*
G01*
X16600000Y-58450001D01*
G75*
G02*
X16350001Y-58700000I-249999J0D01*
G01*
X15649999Y-58700000D01*
G75*
G02*
X15400000Y-58450001I0J249999D01*
G01*
G37*
G36*
G01*
X13400000Y-58450001D02*
X13400000Y-57549999D01*
G75*
G02*
X13649999Y-57300000I249999J0D01*
G01*
X14350001Y-57300000D01*
G75*
G02*
X14600000Y-57549999I0J-249999D01*
G01*
X14600000Y-58450001D01*
G75*
G02*
X14350001Y-58700000I-249999J0D01*
G01*
X13649999Y-58700000D01*
G75*
G02*
X13400000Y-58450001I0J249999D01*
G01*
G37*
%TD*%
%TO.C,R1*%
G36*
G01*
X5400000Y-58450001D02*
X5400000Y-57549999D01*
G75*
G02*
X5649999Y-57300000I249999J0D01*
G01*
X6350001Y-57300000D01*
G75*
G02*
X6600000Y-57549999I0J-249999D01*
G01*
X6600000Y-58450001D01*
G75*
G02*
X6350001Y-58700000I-249999J0D01*
G01*
X5649999Y-58700000D01*
G75*
G02*
X5400000Y-58450001I0J249999D01*
G01*
G37*
G36*
G01*
X3400000Y-58450001D02*
X3400000Y-57549999D01*
G75*
G02*
X3649999Y-57300000I249999J0D01*
G01*
X4350001Y-57300000D01*
G75*
G02*
X4600000Y-57549999I0J-249999D01*
G01*
X4600000Y-58450001D01*
G75*
G02*
X4350001Y-58700000I-249999J0D01*
G01*
X3649999Y-58700000D01*
G75*
G02*
X3400000Y-58450001I0J249999D01*
G01*
G37*
%TD*%
%TO.C,R1*%
G36*
G01*
X75400000Y-48450001D02*
X75400000Y-47549999D01*
G75*
G02*
X75649999Y-47300000I249999J0D01*
G01*
X76350001Y-47300000D01*
G75*
G02*
X76600000Y-47549999I0J-249999D01*
G01*
X76600000Y-48450001D01*
G75*
G02*
X76350001Y-48700000I-249999J0D01*
G01*
X75649999Y-48700000D01*
G75*
G02*
X75400000Y-48450001I0J249999D01*
G01*
G37*
G36*
G01*
X73400000Y-48450001D02*
X73400000Y-47549999D01*
G75*
G02*
X73649999Y-47300000I249999J0D01*
G01*
X74350001Y-47300000D01*
G75*
G02*
X74600000Y-47549999I0J-249999D01*
G01*
X74600000Y-48450001D01*
G75*
G02*
X74350001Y-48700000I-249999J0D01*
G01*
X73649999Y-48700000D01*
G75*
G02*
X73400000Y-48450001I0J249999D01*
G01*
G37*
%TD*%
%TO.C,R1*%
G36*
G01*
X65400000Y-48450001D02*
X65400000Y-47549999D01*
G75*
G02*
X65649999Y-47300000I249999J0D01*
G01*
X66350001Y-47300000D01*
G75*
G02*
X66600000Y-47549999I0J-249999D01*
G01*
X66600000Y-48450001D01*
G75*
G02*
X66350001Y-48700000I-249999J0D01*
G01*
X65649999Y-48700000D01*
G75*
G02*
X65400000Y-48450001I0J249999D01*
G01*
G37*
G36*
G01*
X63400000Y-48450001D02*
X63400000Y-47549999D01*
G75*
G02*
X63649999Y-47300000I249999J0D01*
G01*
X64350001Y-47300000D01*
G75*
G02*
X64600000Y-47549999I0J-249999D01*
G01*
X64600000Y-48450001D01*
G75*
G02*
X64350001Y-48700000I-249999J0D01*
G01*
X63649999Y-48700000D01*
G75*
G02*
X63400000Y-48450001I0J249999D01*
G01*
G37*
%TD*%
%TO.C,R1*%
G36*
G01*
X55400000Y-48450001D02*
X55400000Y-47549999D01*
G75*
G02*
X55649999Y-47300000I249999J0D01*
G01*
X56350001Y-47300000D01*
G75*
G02*
X56600000Y-47549999I0J-249999D01*
G01*
X56600000Y-48450001D01*
G75*
G02*
X56350001Y-48700000I-249999J0D01*
G01*
X55649999Y-48700000D01*
G75*
G02*
X55400000Y-48450001I0J249999D01*
G01*
G37*
G36*
G01*
X53400000Y-48450001D02*
X53400000Y-47549999D01*
G75*
G02*
X53649999Y-47300000I249999J0D01*
G01*
X54350001Y-47300000D01*
G75*
G02*
X54600000Y-47549999I0J-249999D01*
G01*
X54600000Y-48450001D01*
G75*
G02*
X54350001Y-48700000I-249999J0D01*
G01*
X53649999Y-48700000D01*
G75*
G02*
X53400000Y-48450001I0J249999D01*
G01*
G37*
%TD*%
%TO.C,R1*%
G36*
G01*
X45400000Y-48450001D02*
X45400000Y-47549999D01*
G75*
G02*
X45649999Y-47300000I249999J0D01*
G01*
X46350001Y-47300000D01*
G75*
G02*
X46600000Y-47549999I0J-249999D01*
G01*
X46600000Y-48450001D01*
G75*
G02*
X46350001Y-48700000I-249999J0D01*
G01*
X45649999Y-48700000D01*
G75*
G02*
X45400000Y-48450001I0J249999D01*
G01*
G37*
G36*
G01*
X43400000Y-48450001D02*
X43400000Y-47549999D01*
G75*
G02*
X43649999Y-47300000I249999J0D01*
G01*
X44350001Y-47300000D01*
G75*
G02*
X44600000Y-47549999I0J-249999D01*
G01*
X44600000Y-48450001D01*
G75*
G02*
X44350001Y-48700000I-249999J0D01*
G01*
X43649999Y-48700000D01*
G75*
G02*
X43400000Y-48450001I0J249999D01*
G01*
G37*
%TD*%
%TO.C,R1*%
G36*
G01*
X35400000Y-48450001D02*
X35400000Y-47549999D01*
G75*
G02*
X35649999Y-47300000I249999J0D01*
G01*
X36350001Y-47300000D01*
G75*
G02*
X36600000Y-47549999I0J-249999D01*
G01*
X36600000Y-48450001D01*
G75*
G02*
X36350001Y-48700000I-249999J0D01*
G01*
X35649999Y-48700000D01*
G75*
G02*
X35400000Y-48450001I0J249999D01*
G01*
G37*
G36*
G01*
X33400000Y-48450001D02*
X33400000Y-47549999D01*
G75*
G02*
X33649999Y-47300000I249999J0D01*
G01*
X34350001Y-47300000D01*
G75*
G02*
X34600000Y-47549999I0J-249999D01*
G01*
X34600000Y-48450001D01*
G75*
G02*
X34350001Y-48700000I-249999J0D01*
G01*
X33649999Y-48700000D01*
G75*
G02*
X33400000Y-48450001I0J249999D01*
G01*
G37*
%TD*%
%TO.C,R1*%
G36*
G01*
X25400000Y-48450001D02*
X25400000Y-47549999D01*
G75*
G02*
X25649999Y-47300000I249999J0D01*
G01*
X26350001Y-47300000D01*
G75*
G02*
X26600000Y-47549999I0J-249999D01*
G01*
X26600000Y-48450001D01*
G75*
G02*
X26350001Y-48700000I-249999J0D01*
G01*
X25649999Y-48700000D01*
G75*
G02*
X25400000Y-48450001I0J249999D01*
G01*
G37*
G36*
G01*
X23400000Y-48450001D02*
X23400000Y-47549999D01*
G75*
G02*
X23649999Y-47300000I249999J0D01*
G01*
X24350001Y-47300000D01*
G75*
G02*
X24600000Y-47549999I0J-249999D01*
G01*
X24600000Y-48450001D01*
G75*
G02*
X24350001Y-48700000I-249999J0D01*
G01*
X23649999Y-48700000D01*
G75*
G02*
X23400000Y-48450001I0J249999D01*
G01*
G37*
%TD*%
%TO.C,R1*%
G36*
G01*
X15400000Y-48450001D02*
X15400000Y-47549999D01*
G75*
G02*
X15649999Y-47300000I249999J0D01*
G01*
X16350001Y-47300000D01*
G75*
G02*
X16600000Y-47549999I0J-249999D01*
G01*
X16600000Y-48450001D01*
G75*
G02*
X16350001Y-48700000I-249999J0D01*
G01*
X15649999Y-48700000D01*
G75*
G02*
X15400000Y-48450001I0J249999D01*
G01*
G37*
G36*
G01*
X13400000Y-48450001D02*
X13400000Y-47549999D01*
G75*
G02*
X13649999Y-47300000I249999J0D01*
G01*
X14350001Y-47300000D01*
G75*
G02*
X14600000Y-47549999I0J-249999D01*
G01*
X14600000Y-48450001D01*
G75*
G02*
X14350001Y-48700000I-249999J0D01*
G01*
X13649999Y-48700000D01*
G75*
G02*
X13400000Y-48450001I0J249999D01*
G01*
G37*
%TD*%
%TO.C,R1*%
G36*
G01*
X5400000Y-48450001D02*
X5400000Y-47549999D01*
G75*
G02*
X5649999Y-47300000I249999J0D01*
G01*
X6350001Y-47300000D01*
G75*
G02*
X6600000Y-47549999I0J-249999D01*
G01*
X6600000Y-48450001D01*
G75*
G02*
X6350001Y-48700000I-249999J0D01*
G01*
X5649999Y-48700000D01*
G75*
G02*
X5400000Y-48450001I0J249999D01*
G01*
G37*
G36*
G01*
X3400000Y-48450001D02*
X3400000Y-47549999D01*
G75*
G02*
X3649999Y-47300000I249999J0D01*
G01*
X4350001Y-47300000D01*
G75*
G02*
X4600000Y-47549999I0J-249999D01*
G01*
X4600000Y-48450001D01*
G75*
G02*
X4350001Y-48700000I-249999J0D01*
G01*
X3649999Y-48700000D01*
G75*
G02*
X3400000Y-48450001I0J249999D01*
G01*
G37*
%TD*%
%TO.C,R1*%
G36*
G01*
X75400000Y-38450001D02*
X75400000Y-37549999D01*
G75*
G02*
X75649999Y-37300000I249999J0D01*
G01*
X76350001Y-37300000D01*
G75*
G02*
X76600000Y-37549999I0J-249999D01*
G01*
X76600000Y-38450001D01*
G75*
G02*
X76350001Y-38700000I-249999J0D01*
G01*
X75649999Y-38700000D01*
G75*
G02*
X75400000Y-38450001I0J249999D01*
G01*
G37*
G36*
G01*
X73400000Y-38450001D02*
X73400000Y-37549999D01*
G75*
G02*
X73649999Y-37300000I249999J0D01*
G01*
X74350001Y-37300000D01*
G75*
G02*
X74600000Y-37549999I0J-249999D01*
G01*
X74600000Y-38450001D01*
G75*
G02*
X74350001Y-38700000I-249999J0D01*
G01*
X73649999Y-38700000D01*
G75*
G02*
X73400000Y-38450001I0J249999D01*
G01*
G37*
%TD*%
%TO.C,R1*%
G36*
G01*
X65400000Y-38450001D02*
X65400000Y-37549999D01*
G75*
G02*
X65649999Y-37300000I249999J0D01*
G01*
X66350001Y-37300000D01*
G75*
G02*
X66600000Y-37549999I0J-249999D01*
G01*
X66600000Y-38450001D01*
G75*
G02*
X66350001Y-38700000I-249999J0D01*
G01*
X65649999Y-38700000D01*
G75*
G02*
X65400000Y-38450001I0J249999D01*
G01*
G37*
G36*
G01*
X63400000Y-38450001D02*
X63400000Y-37549999D01*
G75*
G02*
X63649999Y-37300000I249999J0D01*
G01*
X64350001Y-37300000D01*
G75*
G02*
X64600000Y-37549999I0J-249999D01*
G01*
X64600000Y-38450001D01*
G75*
G02*
X64350001Y-38700000I-249999J0D01*
G01*
X63649999Y-38700000D01*
G75*
G02*
X63400000Y-38450001I0J249999D01*
G01*
G37*
%TD*%
%TO.C,R1*%
G36*
G01*
X55400000Y-38450001D02*
X55400000Y-37549999D01*
G75*
G02*
X55649999Y-37300000I249999J0D01*
G01*
X56350001Y-37300000D01*
G75*
G02*
X56600000Y-37549999I0J-249999D01*
G01*
X56600000Y-38450001D01*
G75*
G02*
X56350001Y-38700000I-249999J0D01*
G01*
X55649999Y-38700000D01*
G75*
G02*
X55400000Y-38450001I0J249999D01*
G01*
G37*
G36*
G01*
X53400000Y-38450001D02*
X53400000Y-37549999D01*
G75*
G02*
X53649999Y-37300000I249999J0D01*
G01*
X54350001Y-37300000D01*
G75*
G02*
X54600000Y-37549999I0J-249999D01*
G01*
X54600000Y-38450001D01*
G75*
G02*
X54350001Y-38700000I-249999J0D01*
G01*
X53649999Y-38700000D01*
G75*
G02*
X53400000Y-38450001I0J249999D01*
G01*
G37*
%TD*%
%TO.C,R1*%
G36*
G01*
X45400000Y-38450001D02*
X45400000Y-37549999D01*
G75*
G02*
X45649999Y-37300000I249999J0D01*
G01*
X46350001Y-37300000D01*
G75*
G02*
X46600000Y-37549999I0J-249999D01*
G01*
X46600000Y-38450001D01*
G75*
G02*
X46350001Y-38700000I-249999J0D01*
G01*
X45649999Y-38700000D01*
G75*
G02*
X45400000Y-38450001I0J249999D01*
G01*
G37*
G36*
G01*
X43400000Y-38450001D02*
X43400000Y-37549999D01*
G75*
G02*
X43649999Y-37300000I249999J0D01*
G01*
X44350001Y-37300000D01*
G75*
G02*
X44600000Y-37549999I0J-249999D01*
G01*
X44600000Y-38450001D01*
G75*
G02*
X44350001Y-38700000I-249999J0D01*
G01*
X43649999Y-38700000D01*
G75*
G02*
X43400000Y-38450001I0J249999D01*
G01*
G37*
%TD*%
%TO.C,R1*%
G36*
G01*
X35400000Y-38450001D02*
X35400000Y-37549999D01*
G75*
G02*
X35649999Y-37300000I249999J0D01*
G01*
X36350001Y-37300000D01*
G75*
G02*
X36600000Y-37549999I0J-249999D01*
G01*
X36600000Y-38450001D01*
G75*
G02*
X36350001Y-38700000I-249999J0D01*
G01*
X35649999Y-38700000D01*
G75*
G02*
X35400000Y-38450001I0J249999D01*
G01*
G37*
G36*
G01*
X33400000Y-38450001D02*
X33400000Y-37549999D01*
G75*
G02*
X33649999Y-37300000I249999J0D01*
G01*
X34350001Y-37300000D01*
G75*
G02*
X34600000Y-37549999I0J-249999D01*
G01*
X34600000Y-38450001D01*
G75*
G02*
X34350001Y-38700000I-249999J0D01*
G01*
X33649999Y-38700000D01*
G75*
G02*
X33400000Y-38450001I0J249999D01*
G01*
G37*
%TD*%
%TO.C,R1*%
G36*
G01*
X25400000Y-38450001D02*
X25400000Y-37549999D01*
G75*
G02*
X25649999Y-37300000I249999J0D01*
G01*
X26350001Y-37300000D01*
G75*
G02*
X26600000Y-37549999I0J-249999D01*
G01*
X26600000Y-38450001D01*
G75*
G02*
X26350001Y-38700000I-249999J0D01*
G01*
X25649999Y-38700000D01*
G75*
G02*
X25400000Y-38450001I0J249999D01*
G01*
G37*
G36*
G01*
X23400000Y-38450001D02*
X23400000Y-37549999D01*
G75*
G02*
X23649999Y-37300000I249999J0D01*
G01*
X24350001Y-37300000D01*
G75*
G02*
X24600000Y-37549999I0J-249999D01*
G01*
X24600000Y-38450001D01*
G75*
G02*
X24350001Y-38700000I-249999J0D01*
G01*
X23649999Y-38700000D01*
G75*
G02*
X23400000Y-38450001I0J249999D01*
G01*
G37*
%TD*%
%TO.C,R1*%
G36*
G01*
X15400000Y-38450001D02*
X15400000Y-37549999D01*
G75*
G02*
X15649999Y-37300000I249999J0D01*
G01*
X16350001Y-37300000D01*
G75*
G02*
X16600000Y-37549999I0J-249999D01*
G01*
X16600000Y-38450001D01*
G75*
G02*
X16350001Y-38700000I-249999J0D01*
G01*
X15649999Y-38700000D01*
G75*
G02*
X15400000Y-38450001I0J249999D01*
G01*
G37*
G36*
G01*
X13400000Y-38450001D02*
X13400000Y-37549999D01*
G75*
G02*
X13649999Y-37300000I249999J0D01*
G01*
X14350001Y-37300000D01*
G75*
G02*
X14600000Y-37549999I0J-249999D01*
G01*
X14600000Y-38450001D01*
G75*
G02*
X14350001Y-38700000I-249999J0D01*
G01*
X13649999Y-38700000D01*
G75*
G02*
X13400000Y-38450001I0J249999D01*
G01*
G37*
%TD*%
%TO.C,R1*%
G36*
G01*
X5400000Y-38450001D02*
X5400000Y-37549999D01*
G75*
G02*
X5649999Y-37300000I249999J0D01*
G01*
X6350001Y-37300000D01*
G75*
G02*
X6600000Y-37549999I0J-249999D01*
G01*
X6600000Y-38450001D01*
G75*
G02*
X6350001Y-38700000I-249999J0D01*
G01*
X5649999Y-38700000D01*
G75*
G02*
X5400000Y-38450001I0J249999D01*
G01*
G37*
G36*
G01*
X3400000Y-38450001D02*
X3400000Y-37549999D01*
G75*
G02*
X3649999Y-37300000I249999J0D01*
G01*
X4350001Y-37300000D01*
G75*
G02*
X4600000Y-37549999I0J-249999D01*
G01*
X4600000Y-38450001D01*
G75*
G02*
X4350001Y-38700000I-249999J0D01*
G01*
X3649999Y-38700000D01*
G75*
G02*
X3400000Y-38450001I0J249999D01*
G01*
G37*
%TD*%
%TO.C,R1*%
G36*
G01*
X75400000Y-28450001D02*
X75400000Y-27549999D01*
G75*
G02*
X75649999Y-27300000I249999J0D01*
G01*
X76350001Y-27300000D01*
G75*
G02*
X76600000Y-27549999I0J-249999D01*
G01*
X76600000Y-28450001D01*
G75*
G02*
X76350001Y-28700000I-249999J0D01*
G01*
X75649999Y-28700000D01*
G75*
G02*
X75400000Y-28450001I0J249999D01*
G01*
G37*
G36*
G01*
X73400000Y-28450001D02*
X73400000Y-27549999D01*
G75*
G02*
X73649999Y-27300000I249999J0D01*
G01*
X74350001Y-27300000D01*
G75*
G02*
X74600000Y-27549999I0J-249999D01*
G01*
X74600000Y-28450001D01*
G75*
G02*
X74350001Y-28700000I-249999J0D01*
G01*
X73649999Y-28700000D01*
G75*
G02*
X73400000Y-28450001I0J249999D01*
G01*
G37*
%TD*%
%TO.C,R1*%
G36*
G01*
X65400000Y-28450001D02*
X65400000Y-27549999D01*
G75*
G02*
X65649999Y-27300000I249999J0D01*
G01*
X66350001Y-27300000D01*
G75*
G02*
X66600000Y-27549999I0J-249999D01*
G01*
X66600000Y-28450001D01*
G75*
G02*
X66350001Y-28700000I-249999J0D01*
G01*
X65649999Y-28700000D01*
G75*
G02*
X65400000Y-28450001I0J249999D01*
G01*
G37*
G36*
G01*
X63400000Y-28450001D02*
X63400000Y-27549999D01*
G75*
G02*
X63649999Y-27300000I249999J0D01*
G01*
X64350001Y-27300000D01*
G75*
G02*
X64600000Y-27549999I0J-249999D01*
G01*
X64600000Y-28450001D01*
G75*
G02*
X64350001Y-28700000I-249999J0D01*
G01*
X63649999Y-28700000D01*
G75*
G02*
X63400000Y-28450001I0J249999D01*
G01*
G37*
%TD*%
%TO.C,R1*%
G36*
G01*
X55400000Y-28450001D02*
X55400000Y-27549999D01*
G75*
G02*
X55649999Y-27300000I249999J0D01*
G01*
X56350001Y-27300000D01*
G75*
G02*
X56600000Y-27549999I0J-249999D01*
G01*
X56600000Y-28450001D01*
G75*
G02*
X56350001Y-28700000I-249999J0D01*
G01*
X55649999Y-28700000D01*
G75*
G02*
X55400000Y-28450001I0J249999D01*
G01*
G37*
G36*
G01*
X53400000Y-28450001D02*
X53400000Y-27549999D01*
G75*
G02*
X53649999Y-27300000I249999J0D01*
G01*
X54350001Y-27300000D01*
G75*
G02*
X54600000Y-27549999I0J-249999D01*
G01*
X54600000Y-28450001D01*
G75*
G02*
X54350001Y-28700000I-249999J0D01*
G01*
X53649999Y-28700000D01*
G75*
G02*
X53400000Y-28450001I0J249999D01*
G01*
G37*
%TD*%
%TO.C,R1*%
G36*
G01*
X45400000Y-28450001D02*
X45400000Y-27549999D01*
G75*
G02*
X45649999Y-27300000I249999J0D01*
G01*
X46350001Y-27300000D01*
G75*
G02*
X46600000Y-27549999I0J-249999D01*
G01*
X46600000Y-28450001D01*
G75*
G02*
X46350001Y-28700000I-249999J0D01*
G01*
X45649999Y-28700000D01*
G75*
G02*
X45400000Y-28450001I0J249999D01*
G01*
G37*
G36*
G01*
X43400000Y-28450001D02*
X43400000Y-27549999D01*
G75*
G02*
X43649999Y-27300000I249999J0D01*
G01*
X44350001Y-27300000D01*
G75*
G02*
X44600000Y-27549999I0J-249999D01*
G01*
X44600000Y-28450001D01*
G75*
G02*
X44350001Y-28700000I-249999J0D01*
G01*
X43649999Y-28700000D01*
G75*
G02*
X43400000Y-28450001I0J249999D01*
G01*
G37*
%TD*%
%TO.C,R1*%
G36*
G01*
X35400000Y-28450001D02*
X35400000Y-27549999D01*
G75*
G02*
X35649999Y-27300000I249999J0D01*
G01*
X36350001Y-27300000D01*
G75*
G02*
X36600000Y-27549999I0J-249999D01*
G01*
X36600000Y-28450001D01*
G75*
G02*
X36350001Y-28700000I-249999J0D01*
G01*
X35649999Y-28700000D01*
G75*
G02*
X35400000Y-28450001I0J249999D01*
G01*
G37*
G36*
G01*
X33400000Y-28450001D02*
X33400000Y-27549999D01*
G75*
G02*
X33649999Y-27300000I249999J0D01*
G01*
X34350001Y-27300000D01*
G75*
G02*
X34600000Y-27549999I0J-249999D01*
G01*
X34600000Y-28450001D01*
G75*
G02*
X34350001Y-28700000I-249999J0D01*
G01*
X33649999Y-28700000D01*
G75*
G02*
X33400000Y-28450001I0J249999D01*
G01*
G37*
%TD*%
%TO.C,R1*%
G36*
G01*
X25400000Y-28450001D02*
X25400000Y-27549999D01*
G75*
G02*
X25649999Y-27300000I249999J0D01*
G01*
X26350001Y-27300000D01*
G75*
G02*
X26600000Y-27549999I0J-249999D01*
G01*
X26600000Y-28450001D01*
G75*
G02*
X26350001Y-28700000I-249999J0D01*
G01*
X25649999Y-28700000D01*
G75*
G02*
X25400000Y-28450001I0J249999D01*
G01*
G37*
G36*
G01*
X23400000Y-28450001D02*
X23400000Y-27549999D01*
G75*
G02*
X23649999Y-27300000I249999J0D01*
G01*
X24350001Y-27300000D01*
G75*
G02*
X24600000Y-27549999I0J-249999D01*
G01*
X24600000Y-28450001D01*
G75*
G02*
X24350001Y-28700000I-249999J0D01*
G01*
X23649999Y-28700000D01*
G75*
G02*
X23400000Y-28450001I0J249999D01*
G01*
G37*
%TD*%
%TO.C,R1*%
G36*
G01*
X15400000Y-28450001D02*
X15400000Y-27549999D01*
G75*
G02*
X15649999Y-27300000I249999J0D01*
G01*
X16350001Y-27300000D01*
G75*
G02*
X16600000Y-27549999I0J-249999D01*
G01*
X16600000Y-28450001D01*
G75*
G02*
X16350001Y-28700000I-249999J0D01*
G01*
X15649999Y-28700000D01*
G75*
G02*
X15400000Y-28450001I0J249999D01*
G01*
G37*
G36*
G01*
X13400000Y-28450001D02*
X13400000Y-27549999D01*
G75*
G02*
X13649999Y-27300000I249999J0D01*
G01*
X14350001Y-27300000D01*
G75*
G02*
X14600000Y-27549999I0J-249999D01*
G01*
X14600000Y-28450001D01*
G75*
G02*
X14350001Y-28700000I-249999J0D01*
G01*
X13649999Y-28700000D01*
G75*
G02*
X13400000Y-28450001I0J249999D01*
G01*
G37*
%TD*%
%TO.C,R1*%
G36*
G01*
X5400000Y-28450001D02*
X5400000Y-27549999D01*
G75*
G02*
X5649999Y-27300000I249999J0D01*
G01*
X6350001Y-27300000D01*
G75*
G02*
X6600000Y-27549999I0J-249999D01*
G01*
X6600000Y-28450001D01*
G75*
G02*
X6350001Y-28700000I-249999J0D01*
G01*
X5649999Y-28700000D01*
G75*
G02*
X5400000Y-28450001I0J249999D01*
G01*
G37*
G36*
G01*
X3400000Y-28450001D02*
X3400000Y-27549999D01*
G75*
G02*
X3649999Y-27300000I249999J0D01*
G01*
X4350001Y-27300000D01*
G75*
G02*
X4600000Y-27549999I0J-249999D01*
G01*
X4600000Y-28450001D01*
G75*
G02*
X4350001Y-28700000I-249999J0D01*
G01*
X3649999Y-28700000D01*
G75*
G02*
X3400000Y-28450001I0J249999D01*
G01*
G37*
%TD*%
%TO.C,R1*%
G36*
G01*
X75400000Y-18450001D02*
X75400000Y-17549999D01*
G75*
G02*
X75649999Y-17300000I249999J0D01*
G01*
X76350001Y-17300000D01*
G75*
G02*
X76600000Y-17549999I0J-249999D01*
G01*
X76600000Y-18450001D01*
G75*
G02*
X76350001Y-18700000I-249999J0D01*
G01*
X75649999Y-18700000D01*
G75*
G02*
X75400000Y-18450001I0J249999D01*
G01*
G37*
G36*
G01*
X73400000Y-18450001D02*
X73400000Y-17549999D01*
G75*
G02*
X73649999Y-17300000I249999J0D01*
G01*
X74350001Y-17300000D01*
G75*
G02*
X74600000Y-17549999I0J-249999D01*
G01*
X74600000Y-18450001D01*
G75*
G02*
X74350001Y-18700000I-249999J0D01*
G01*
X73649999Y-18700000D01*
G75*
G02*
X73400000Y-18450001I0J249999D01*
G01*
G37*
%TD*%
%TO.C,R1*%
G36*
G01*
X65400000Y-18450001D02*
X65400000Y-17549999D01*
G75*
G02*
X65649999Y-17300000I249999J0D01*
G01*
X66350001Y-17300000D01*
G75*
G02*
X66600000Y-17549999I0J-249999D01*
G01*
X66600000Y-18450001D01*
G75*
G02*
X66350001Y-18700000I-249999J0D01*
G01*
X65649999Y-18700000D01*
G75*
G02*
X65400000Y-18450001I0J249999D01*
G01*
G37*
G36*
G01*
X63400000Y-18450001D02*
X63400000Y-17549999D01*
G75*
G02*
X63649999Y-17300000I249999J0D01*
G01*
X64350001Y-17300000D01*
G75*
G02*
X64600000Y-17549999I0J-249999D01*
G01*
X64600000Y-18450001D01*
G75*
G02*
X64350001Y-18700000I-249999J0D01*
G01*
X63649999Y-18700000D01*
G75*
G02*
X63400000Y-18450001I0J249999D01*
G01*
G37*
%TD*%
%TO.C,R1*%
G36*
G01*
X55400000Y-18450001D02*
X55400000Y-17549999D01*
G75*
G02*
X55649999Y-17300000I249999J0D01*
G01*
X56350001Y-17300000D01*
G75*
G02*
X56600000Y-17549999I0J-249999D01*
G01*
X56600000Y-18450001D01*
G75*
G02*
X56350001Y-18700000I-249999J0D01*
G01*
X55649999Y-18700000D01*
G75*
G02*
X55400000Y-18450001I0J249999D01*
G01*
G37*
G36*
G01*
X53400000Y-18450001D02*
X53400000Y-17549999D01*
G75*
G02*
X53649999Y-17300000I249999J0D01*
G01*
X54350001Y-17300000D01*
G75*
G02*
X54600000Y-17549999I0J-249999D01*
G01*
X54600000Y-18450001D01*
G75*
G02*
X54350001Y-18700000I-249999J0D01*
G01*
X53649999Y-18700000D01*
G75*
G02*
X53400000Y-18450001I0J249999D01*
G01*
G37*
%TD*%
%TO.C,R1*%
G36*
G01*
X45400000Y-18450001D02*
X45400000Y-17549999D01*
G75*
G02*
X45649999Y-17300000I249999J0D01*
G01*
X46350001Y-17300000D01*
G75*
G02*
X46600000Y-17549999I0J-249999D01*
G01*
X46600000Y-18450001D01*
G75*
G02*
X46350001Y-18700000I-249999J0D01*
G01*
X45649999Y-18700000D01*
G75*
G02*
X45400000Y-18450001I0J249999D01*
G01*
G37*
G36*
G01*
X43400000Y-18450001D02*
X43400000Y-17549999D01*
G75*
G02*
X43649999Y-17300000I249999J0D01*
G01*
X44350001Y-17300000D01*
G75*
G02*
X44600000Y-17549999I0J-249999D01*
G01*
X44600000Y-18450001D01*
G75*
G02*
X44350001Y-18700000I-249999J0D01*
G01*
X43649999Y-18700000D01*
G75*
G02*
X43400000Y-18450001I0J249999D01*
G01*
G37*
%TD*%
%TO.C,R1*%
G36*
G01*
X35400000Y-18450001D02*
X35400000Y-17549999D01*
G75*
G02*
X35649999Y-17300000I249999J0D01*
G01*
X36350001Y-17300000D01*
G75*
G02*
X36600000Y-17549999I0J-249999D01*
G01*
X36600000Y-18450001D01*
G75*
G02*
X36350001Y-18700000I-249999J0D01*
G01*
X35649999Y-18700000D01*
G75*
G02*
X35400000Y-18450001I0J249999D01*
G01*
G37*
G36*
G01*
X33400000Y-18450001D02*
X33400000Y-17549999D01*
G75*
G02*
X33649999Y-17300000I249999J0D01*
G01*
X34350001Y-17300000D01*
G75*
G02*
X34600000Y-17549999I0J-249999D01*
G01*
X34600000Y-18450001D01*
G75*
G02*
X34350001Y-18700000I-249999J0D01*
G01*
X33649999Y-18700000D01*
G75*
G02*
X33400000Y-18450001I0J249999D01*
G01*
G37*
%TD*%
%TO.C,R1*%
G36*
G01*
X25400000Y-18450001D02*
X25400000Y-17549999D01*
G75*
G02*
X25649999Y-17300000I249999J0D01*
G01*
X26350001Y-17300000D01*
G75*
G02*
X26600000Y-17549999I0J-249999D01*
G01*
X26600000Y-18450001D01*
G75*
G02*
X26350001Y-18700000I-249999J0D01*
G01*
X25649999Y-18700000D01*
G75*
G02*
X25400000Y-18450001I0J249999D01*
G01*
G37*
G36*
G01*
X23400000Y-18450001D02*
X23400000Y-17549999D01*
G75*
G02*
X23649999Y-17300000I249999J0D01*
G01*
X24350001Y-17300000D01*
G75*
G02*
X24600000Y-17549999I0J-249999D01*
G01*
X24600000Y-18450001D01*
G75*
G02*
X24350001Y-18700000I-249999J0D01*
G01*
X23649999Y-18700000D01*
G75*
G02*
X23400000Y-18450001I0J249999D01*
G01*
G37*
%TD*%
%TO.C,R1*%
G36*
G01*
X15400000Y-18450001D02*
X15400000Y-17549999D01*
G75*
G02*
X15649999Y-17300000I249999J0D01*
G01*
X16350001Y-17300000D01*
G75*
G02*
X16600000Y-17549999I0J-249999D01*
G01*
X16600000Y-18450001D01*
G75*
G02*
X16350001Y-18700000I-249999J0D01*
G01*
X15649999Y-18700000D01*
G75*
G02*
X15400000Y-18450001I0J249999D01*
G01*
G37*
G36*
G01*
X13400000Y-18450001D02*
X13400000Y-17549999D01*
G75*
G02*
X13649999Y-17300000I249999J0D01*
G01*
X14350001Y-17300000D01*
G75*
G02*
X14600000Y-17549999I0J-249999D01*
G01*
X14600000Y-18450001D01*
G75*
G02*
X14350001Y-18700000I-249999J0D01*
G01*
X13649999Y-18700000D01*
G75*
G02*
X13400000Y-18450001I0J249999D01*
G01*
G37*
%TD*%
%TO.C,R1*%
G36*
G01*
X5400000Y-18450001D02*
X5400000Y-17549999D01*
G75*
G02*
X5649999Y-17300000I249999J0D01*
G01*
X6350001Y-17300000D01*
G75*
G02*
X6600000Y-17549999I0J-249999D01*
G01*
X6600000Y-18450001D01*
G75*
G02*
X6350001Y-18700000I-249999J0D01*
G01*
X5649999Y-18700000D01*
G75*
G02*
X5400000Y-18450001I0J249999D01*
G01*
G37*
G36*
G01*
X3400000Y-18450001D02*
X3400000Y-17549999D01*
G75*
G02*
X3649999Y-17300000I249999J0D01*
G01*
X4350001Y-17300000D01*
G75*
G02*
X4600000Y-17549999I0J-249999D01*
G01*
X4600000Y-18450001D01*
G75*
G02*
X4350001Y-18700000I-249999J0D01*
G01*
X3649999Y-18700000D01*
G75*
G02*
X3400000Y-18450001I0J249999D01*
G01*
G37*
%TD*%
%TO.C,R1*%
G36*
G01*
X75400000Y-8450001D02*
X75400000Y-7549999D01*
G75*
G02*
X75649999Y-7300000I249999J0D01*
G01*
X76350001Y-7300000D01*
G75*
G02*
X76600000Y-7549999I0J-249999D01*
G01*
X76600000Y-8450001D01*
G75*
G02*
X76350001Y-8700000I-249999J0D01*
G01*
X75649999Y-8700000D01*
G75*
G02*
X75400000Y-8450001I0J249999D01*
G01*
G37*
G36*
G01*
X73400000Y-8450001D02*
X73400000Y-7549999D01*
G75*
G02*
X73649999Y-7300000I249999J0D01*
G01*
X74350001Y-7300000D01*
G75*
G02*
X74600000Y-7549999I0J-249999D01*
G01*
X74600000Y-8450001D01*
G75*
G02*
X74350001Y-8700000I-249999J0D01*
G01*
X73649999Y-8700000D01*
G75*
G02*
X73400000Y-8450001I0J249999D01*
G01*
G37*
%TD*%
%TO.C,R1*%
G36*
G01*
X65400000Y-8450001D02*
X65400000Y-7549999D01*
G75*
G02*
X65649999Y-7300000I249999J0D01*
G01*
X66350001Y-7300000D01*
G75*
G02*
X66600000Y-7549999I0J-249999D01*
G01*
X66600000Y-8450001D01*
G75*
G02*
X66350001Y-8700000I-249999J0D01*
G01*
X65649999Y-8700000D01*
G75*
G02*
X65400000Y-8450001I0J249999D01*
G01*
G37*
G36*
G01*
X63400000Y-8450001D02*
X63400000Y-7549999D01*
G75*
G02*
X63649999Y-7300000I249999J0D01*
G01*
X64350001Y-7300000D01*
G75*
G02*
X64600000Y-7549999I0J-249999D01*
G01*
X64600000Y-8450001D01*
G75*
G02*
X64350001Y-8700000I-249999J0D01*
G01*
X63649999Y-8700000D01*
G75*
G02*
X63400000Y-8450001I0J249999D01*
G01*
G37*
%TD*%
%TO.C,R1*%
G36*
G01*
X55400000Y-8450001D02*
X55400000Y-7549999D01*
G75*
G02*
X55649999Y-7300000I249999J0D01*
G01*
X56350001Y-7300000D01*
G75*
G02*
X56600000Y-7549999I0J-249999D01*
G01*
X56600000Y-8450001D01*
G75*
G02*
X56350001Y-8700000I-249999J0D01*
G01*
X55649999Y-8700000D01*
G75*
G02*
X55400000Y-8450001I0J249999D01*
G01*
G37*
G36*
G01*
X53400000Y-8450001D02*
X53400000Y-7549999D01*
G75*
G02*
X53649999Y-7300000I249999J0D01*
G01*
X54350001Y-7300000D01*
G75*
G02*
X54600000Y-7549999I0J-249999D01*
G01*
X54600000Y-8450001D01*
G75*
G02*
X54350001Y-8700000I-249999J0D01*
G01*
X53649999Y-8700000D01*
G75*
G02*
X53400000Y-8450001I0J249999D01*
G01*
G37*
%TD*%
%TO.C,R1*%
G36*
G01*
X45400000Y-8450001D02*
X45400000Y-7549999D01*
G75*
G02*
X45649999Y-7300000I249999J0D01*
G01*
X46350001Y-7300000D01*
G75*
G02*
X46600000Y-7549999I0J-249999D01*
G01*
X46600000Y-8450001D01*
G75*
G02*
X46350001Y-8700000I-249999J0D01*
G01*
X45649999Y-8700000D01*
G75*
G02*
X45400000Y-8450001I0J249999D01*
G01*
G37*
G36*
G01*
X43400000Y-8450001D02*
X43400000Y-7549999D01*
G75*
G02*
X43649999Y-7300000I249999J0D01*
G01*
X44350001Y-7300000D01*
G75*
G02*
X44600000Y-7549999I0J-249999D01*
G01*
X44600000Y-8450001D01*
G75*
G02*
X44350001Y-8700000I-249999J0D01*
G01*
X43649999Y-8700000D01*
G75*
G02*
X43400000Y-8450001I0J249999D01*
G01*
G37*
%TD*%
%TO.C,R1*%
G36*
G01*
X35400000Y-8450001D02*
X35400000Y-7549999D01*
G75*
G02*
X35649999Y-7300000I249999J0D01*
G01*
X36350001Y-7300000D01*
G75*
G02*
X36600000Y-7549999I0J-249999D01*
G01*
X36600000Y-8450001D01*
G75*
G02*
X36350001Y-8700000I-249999J0D01*
G01*
X35649999Y-8700000D01*
G75*
G02*
X35400000Y-8450001I0J249999D01*
G01*
G37*
G36*
G01*
X33400000Y-8450001D02*
X33400000Y-7549999D01*
G75*
G02*
X33649999Y-7300000I249999J0D01*
G01*
X34350001Y-7300000D01*
G75*
G02*
X34600000Y-7549999I0J-249999D01*
G01*
X34600000Y-8450001D01*
G75*
G02*
X34350001Y-8700000I-249999J0D01*
G01*
X33649999Y-8700000D01*
G75*
G02*
X33400000Y-8450001I0J249999D01*
G01*
G37*
%TD*%
%TO.C,R1*%
G36*
G01*
X25400000Y-8450001D02*
X25400000Y-7549999D01*
G75*
G02*
X25649999Y-7300000I249999J0D01*
G01*
X26350001Y-7300000D01*
G75*
G02*
X26600000Y-7549999I0J-249999D01*
G01*
X26600000Y-8450001D01*
G75*
G02*
X26350001Y-8700000I-249999J0D01*
G01*
X25649999Y-8700000D01*
G75*
G02*
X25400000Y-8450001I0J249999D01*
G01*
G37*
G36*
G01*
X23400000Y-8450001D02*
X23400000Y-7549999D01*
G75*
G02*
X23649999Y-7300000I249999J0D01*
G01*
X24350001Y-7300000D01*
G75*
G02*
X24600000Y-7549999I0J-249999D01*
G01*
X24600000Y-8450001D01*
G75*
G02*
X24350001Y-8700000I-249999J0D01*
G01*
X23649999Y-8700000D01*
G75*
G02*
X23400000Y-8450001I0J249999D01*
G01*
G37*
%TD*%
%TO.C,R1*%
G36*
G01*
X15400000Y-8450001D02*
X15400000Y-7549999D01*
G75*
G02*
X15649999Y-7300000I249999J0D01*
G01*
X16350001Y-7300000D01*
G75*
G02*
X16600000Y-7549999I0J-249999D01*
G01*
X16600000Y-8450001D01*
G75*
G02*
X16350001Y-8700000I-249999J0D01*
G01*
X15649999Y-8700000D01*
G75*
G02*
X15400000Y-8450001I0J249999D01*
G01*
G37*
G36*
G01*
X13400000Y-8450001D02*
X13400000Y-7549999D01*
G75*
G02*
X13649999Y-7300000I249999J0D01*
G01*
X14350001Y-7300000D01*
G75*
G02*
X14600000Y-7549999I0J-249999D01*
G01*
X14600000Y-8450001D01*
G75*
G02*
X14350001Y-8700000I-249999J0D01*
G01*
X13649999Y-8700000D01*
G75*
G02*
X13400000Y-8450001I0J249999D01*
G01*
G37*
%TD*%
%TO.C,R1*%
G36*
G01*
X5400000Y-8450001D02*
X5400000Y-7549999D01*
G75*
G02*
X5649999Y-7300000I249999J0D01*
G01*
X6350001Y-7300000D01*
G75*
G02*
X6600000Y-7549999I0J-249999D01*
G01*
X6600000Y-8450001D01*
G75*
G02*
X6350001Y-8700000I-249999J0D01*
G01*
X5649999Y-8700000D01*
G75*
G02*
X5400000Y-8450001I0J249999D01*
G01*
G37*
G36*
G01*
X3400000Y-8450001D02*
X3400000Y-7549999D01*
G75*
G02*
X3649999Y-7300000I249999J0D01*
G01*
X4350001Y-7300000D01*
G75*
G02*
X4600000Y-7549999I0J-249999D01*
G01*
X4600000Y-8450001D01*
G75*
G02*
X4350001Y-8700000I-249999J0D01*
G01*
X3649999Y-8700000D01*
G75*
G02*
X3400000Y-8450001I0J249999D01*
G01*
G37*
%TD*%
D10*
%TO.C,D1*%
X76270000Y-75000000D03*
D11*
X73730000Y-75000000D03*
%TD*%
D10*
%TO.C,D1*%
X66270000Y-75000000D03*
D11*
X63730000Y-75000000D03*
%TD*%
D10*
%TO.C,D1*%
X56270000Y-75000000D03*
D11*
X53730000Y-75000000D03*
%TD*%
D10*
%TO.C,D1*%
X46270000Y-75000000D03*
D11*
X43730000Y-75000000D03*
%TD*%
D10*
%TO.C,D1*%
X36270000Y-75000000D03*
D11*
X33730000Y-75000000D03*
%TD*%
D10*
%TO.C,D1*%
X26270000Y-75000000D03*
D11*
X23730000Y-75000000D03*
%TD*%
D10*
%TO.C,D1*%
X16270000Y-75000000D03*
D11*
X13730000Y-75000000D03*
%TD*%
D10*
%TO.C,D1*%
X6270000Y-75000000D03*
D11*
X3730000Y-75000000D03*
%TD*%
D10*
%TO.C,D1*%
X76270000Y-65000000D03*
D11*
X73730000Y-65000000D03*
%TD*%
D10*
%TO.C,D1*%
X66270000Y-65000000D03*
D11*
X63730000Y-65000000D03*
%TD*%
D10*
%TO.C,D1*%
X56270000Y-65000000D03*
D11*
X53730000Y-65000000D03*
%TD*%
D10*
%TO.C,D1*%
X46270000Y-65000000D03*
D11*
X43730000Y-65000000D03*
%TD*%
D10*
%TO.C,D1*%
X36270000Y-65000000D03*
D11*
X33730000Y-65000000D03*
%TD*%
D10*
%TO.C,D1*%
X26270000Y-65000000D03*
D11*
X23730000Y-65000000D03*
%TD*%
D10*
%TO.C,D1*%
X16270000Y-65000000D03*
D11*
X13730000Y-65000000D03*
%TD*%
D10*
%TO.C,D1*%
X6270000Y-65000000D03*
D11*
X3730000Y-65000000D03*
%TD*%
D10*
%TO.C,D1*%
X76270000Y-55000000D03*
D11*
X73730000Y-55000000D03*
%TD*%
D10*
%TO.C,D1*%
X66270000Y-55000000D03*
D11*
X63730000Y-55000000D03*
%TD*%
D10*
%TO.C,D1*%
X56270000Y-55000000D03*
D11*
X53730000Y-55000000D03*
%TD*%
D10*
%TO.C,D1*%
X46270000Y-55000000D03*
D11*
X43730000Y-55000000D03*
%TD*%
D10*
%TO.C,D1*%
X36270000Y-55000000D03*
D11*
X33730000Y-55000000D03*
%TD*%
D10*
%TO.C,D1*%
X26270000Y-55000000D03*
D11*
X23730000Y-55000000D03*
%TD*%
D10*
%TO.C,D1*%
X16270000Y-55000000D03*
D11*
X13730000Y-55000000D03*
%TD*%
D10*
%TO.C,D1*%
X6270000Y-55000000D03*
D11*
X3730000Y-55000000D03*
%TD*%
D10*
%TO.C,D1*%
X76270000Y-45000000D03*
D11*
X73730000Y-45000000D03*
%TD*%
D10*
%TO.C,D1*%
X66270000Y-45000000D03*
D11*
X63730000Y-45000000D03*
%TD*%
D10*
%TO.C,D1*%
X56270000Y-45000000D03*
D11*
X53730000Y-45000000D03*
%TD*%
D10*
%TO.C,D1*%
X46270000Y-45000000D03*
D11*
X43730000Y-45000000D03*
%TD*%
D10*
%TO.C,D1*%
X36270000Y-45000000D03*
D11*
X33730000Y-45000000D03*
%TD*%
D10*
%TO.C,D1*%
X26270000Y-45000000D03*
D11*
X23730000Y-45000000D03*
%TD*%
D10*
%TO.C,D1*%
X16270000Y-45000000D03*
D11*
X13730000Y-45000000D03*
%TD*%
D10*
%TO.C,D1*%
X6270000Y-45000000D03*
D11*
X3730000Y-45000000D03*
%TD*%
D10*
%TO.C,D1*%
X76270000Y-35000000D03*
D11*
X73730000Y-35000000D03*
%TD*%
D10*
%TO.C,D1*%
X66270000Y-35000000D03*
D11*
X63730000Y-35000000D03*
%TD*%
D10*
%TO.C,D1*%
X56270000Y-35000000D03*
D11*
X53730000Y-35000000D03*
%TD*%
D10*
%TO.C,D1*%
X46270000Y-35000000D03*
D11*
X43730000Y-35000000D03*
%TD*%
D10*
%TO.C,D1*%
X36270000Y-35000000D03*
D11*
X33730000Y-35000000D03*
%TD*%
D10*
%TO.C,D1*%
X26270000Y-35000000D03*
D11*
X23730000Y-35000000D03*
%TD*%
D10*
%TO.C,D1*%
X16270000Y-35000000D03*
D11*
X13730000Y-35000000D03*
%TD*%
D10*
%TO.C,D1*%
X6270000Y-35000000D03*
D11*
X3730000Y-35000000D03*
%TD*%
D10*
%TO.C,D1*%
X76270000Y-25000000D03*
D11*
X73730000Y-25000000D03*
%TD*%
D10*
%TO.C,D1*%
X66270000Y-25000000D03*
D11*
X63730000Y-25000000D03*
%TD*%
D10*
%TO.C,D1*%
X56270000Y-25000000D03*
D11*
X53730000Y-25000000D03*
%TD*%
D10*
%TO.C,D1*%
X46270000Y-25000000D03*
D11*
X43730000Y-25000000D03*
%TD*%
D10*
%TO.C,D1*%
X36270000Y-25000000D03*
D11*
X33730000Y-25000000D03*
%TD*%
D10*
%TO.C,D1*%
X26270000Y-25000000D03*
D11*
X23730000Y-25000000D03*
%TD*%
D10*
%TO.C,D1*%
X16270000Y-25000000D03*
D11*
X13730000Y-25000000D03*
%TD*%
D10*
%TO.C,D1*%
X6270000Y-25000000D03*
D11*
X3730000Y-25000000D03*
%TD*%
D10*
%TO.C,D1*%
X76270000Y-15000000D03*
D11*
X73730000Y-15000000D03*
%TD*%
D10*
%TO.C,D1*%
X66270000Y-15000000D03*
D11*
X63730000Y-15000000D03*
%TD*%
D10*
%TO.C,D1*%
X56270000Y-15000000D03*
D11*
X53730000Y-15000000D03*
%TD*%
D10*
%TO.C,D1*%
X46270000Y-15000000D03*
D11*
X43730000Y-15000000D03*
%TD*%
D10*
%TO.C,D1*%
X36270000Y-15000000D03*
D11*
X33730000Y-15000000D03*
%TD*%
D10*
%TO.C,D1*%
X26270000Y-15000000D03*
D11*
X23730000Y-15000000D03*
%TD*%
D10*
%TO.C,D1*%
X16270000Y-15000000D03*
D11*
X13730000Y-15000000D03*
%TD*%
D10*
%TO.C,D1*%
X6270000Y-15000000D03*
D11*
X3730000Y-15000000D03*
%TD*%
D10*
%TO.C,D1*%
X76270000Y-5000000D03*
D11*
X73730000Y-5000000D03*
%TD*%
D10*
%TO.C,D1*%
X66270000Y-5000000D03*
D11*
X63730000Y-5000000D03*
%TD*%
D10*
%TO.C,D1*%
X56270000Y-5000000D03*
D11*
X53730000Y-5000000D03*
%TD*%
D10*
%TO.C,D1*%
X46270000Y-5000000D03*
D11*
X43730000Y-5000000D03*
%TD*%
D10*
%TO.C,D1*%
X36270000Y-5000000D03*
D11*
X33730000Y-5000000D03*
%TD*%
D10*
%TO.C,D1*%
X26270000Y-5000000D03*
D11*
X23730000Y-5000000D03*
%TD*%
D10*
%TO.C,D1*%
X16270000Y-5000000D03*
D11*
X13730000Y-5000000D03*
%TD*%
D10*
%TO.C,D1*%
X6270000Y-5000000D03*
D11*
X3730000Y-5000000D03*
%TD*%
D12*
%TO.C,REF\u002A\u002A*%
X70000000Y-70000000D03*
%TD*%
%TO.C,REF\u002A\u002A*%
X10000000Y-70000000D03*
%TD*%
%TO.C,REF\u002A\u002A*%
X70000000Y-10000000D03*
%TD*%
%TO.C,REF\u002A\u002A*%
X10000000Y-10000000D03*
%TD*%
D13*
%TO.C,J2*%
X40000000Y-69460000D03*
D14*
X40000000Y-72000000D03*
%TD*%
D13*
%TO.C,J1*%
X40000000Y-8460000D03*
D14*
X40000000Y-11000000D03*
%TD*%
M02*
